<?xml version="1.0" standalone="no"?>
<!DOCTYPE svg PUBLIC "-//W3C//DTD SVG 20010904//EN"
 "http://www.w3.org/TR/2001/REC-SVG-20010904/DTD/svg10.dtd">
<svg version="1.0" xmlns="http://www.w3.org/2000/svg"
 width="512.000000pt" height="512.000000pt" viewBox="0 0 512.000000 512.000000"
 preserveAspectRatio="xMidYMid meet">

<g transform="translate(0.000000,512.000000) scale(0.100000,-0.100000)"
fill="#000000" stroke="none">
<path d="M1440 5107 c-49 -16 -133 -102 -148 -153 -7 -23 -12 -79 -12 -126 l0
-85 -38 -11 c-91 -27 -225 -128 -296 -223 -67 -89 -102 -171 -141 -326 -18
-76 -48 -178 -65 -226 -33 -94 -369 -846 -450 -1008 -178 -354 -271 -707 -286
-1089 -15 -349 47 -646 196 -945 233 -466 633 -784 1113 -887 138 -29 418 -31
552 -5 108 22 251 67 343 108 75 34 219 116 228 130 3 5 -5 23 -17 40 -19 28
-20 33 -7 40 9 5 41 29 71 54 31 25 57 45 59 45 2 0 33 -27 68 -60 191 -177
419 -293 694 -352 147 -31 415 -32 571 0 540 108 970 463 1155 954 62 164 83
285 84 473 0 172 -14 272 -59 408 -51 156 -214 488 -313 637 -149 224 -230
308 -747 779 l-340 310 -52 -57 c-29 -31 -51 -60 -50 -64 1 -3 183 -171 404
-372 221 -201 435 -404 475 -452 149 -175 262 -351 354 -554 110 -243 139
-381 131 -618 -6 -170 -22 -251 -77 -389 -140 -348 -441 -576 -825 -623 -207
-26 -467 30 -640 138 l-49 31 -24 -35 -23 -34 -46 32 c-26 18 -52 36 -57 40
-7 4 -2 16 11 30 12 13 23 28 24 33 2 6 -31 43 -74 84 l-77 75 -29 -28 -28
-27 -30 35 c-17 19 -45 55 -62 80 l-32 46 34 20 33 20 -81 164 c-83 166 -159
374 -189 516 -37 170 -46 298 -78 1017 -27 623 -30 763 -20 810 46 221 247
362 464 325 94 -16 169 -57 262 -141 43 -39 81 -71 85 -70 3 1 29 26 56 56
l50 55 -80 74 c-150 138 -269 189 -440 189 -124 -1 -169 -14 -378 -111 -88
-41 -161 -74 -163 -74 -4 0 -44 91 -44 101 0 5 16 15 36 24 39 16 39 9 4 110
-18 51 -22 53 -71 40 -26 -6 -27 -5 -43 65 -9 40 -16 76 -16 81 0 4 18 13 39
19 l40 10 -20 60 c-25 72 -79 162 -141 234 -55 63 -176 148 -248 173 l-50 18
0 84 c0 108 -14 152 -67 211 -60 67 -104 80 -257 79 -67 -1 -137 -6 -156 -12z
m291 -176 l29 -29 0 -142 0 -142 -30 -30 -31 -30 -104 4 c-151 5 -150 4 -150
197 0 198 -1 197 168 200 85 1 90 0 118 -28z m366 -612 c18 -16 43 -63 43 -84
0 -23 -37 -55 -65 -55 -51 0 -115 82 -100 129 12 38 81 44 122 10z m129 -325
c15 -23 16 -27 2 -41 -19 -19 -54 -10 -69 18 -26 49 36 71 67 23z"/>
<path d="M3625 2360 c-169 -37 -313 -150 -389 -304 -59 -120 -71 -181 -70
-356 0 -139 3 -164 27 -243 49 -158 126 -293 233 -407 155 -164 356 -260 543
-260 69 0 194 35 260 72 74 42 178 148 218 223 59 112 78 201 78 370 0 164
-13 230 -67 358 -54 127 -109 208 -213 313 -112 114 -195 168 -320 209 -87 29
-228 41 -300 25z m196 -164 c311 -66 569 -436 545 -781 -10 -154 -47 -255
-122 -333 l-43 -45 -66 6 c-311 29 -612 379 -650 757 -8 78 9 210 37 297 19
58 24 63 64 79 95 36 139 40 235 20z"/>
</g>
</svg>
